<svg width="725" height="669" viewBox="0 0 725 669" fill="none" xmlns="http://www.w3.org/2000/svg">
<path d="M725 511.651H0V511.987H725V511.651Z" fill="#F0F0F0"/>
<path d="M514.75 528.51H499.554V528.846H514.75V528.51Z" fill="#F0F0F0"/>
<path d="M108.837 519.733H94.1484V520.069H108.837V519.733Z" fill="#F0F0F0"/>
<path d="M266.96 528.35H222.503V528.685H266.96V528.35Z" fill="#F0F0F0"/>
<path d="M339.3 520.709H310.764V521.045H339.3V520.709Z" fill="#F0F0F0"/>
<path d="M622.949 522.837H546.911V523.173H622.949V522.837Z" fill="#F0F0F0"/>
<path d="M178.292 519.733H115.841V520.069H178.292V519.733Z" fill="#F0F0F0"/>
<path d="M655.284 522.998H631.402V523.333H655.284V522.998Z" fill="#F0F0F0"/>
<path d="M343.65 451.976H63.6693C61.476 451.973 59.3738 451.166 57.8242 449.734C56.2746 448.302 55.4043 446.36 55.4043 444.336V81.1632C55.4234 79.1508 56.3021 77.2267 57.8496 75.8088C59.3972 74.3908 61.4885 73.5935 63.6693 73.5901H343.65C345.846 73.5901 347.952 74.395 349.504 75.8278C351.057 77.2606 351.929 79.2038 351.929 81.2301V444.336C351.929 446.363 351.057 448.306 349.504 449.739C347.952 451.172 345.846 451.976 343.65 451.976ZM63.6693 73.8577C61.5721 73.8612 59.5621 74.6325 58.0805 76.0021C56.5989 77.3718 55.7668 79.2279 55.7668 81.1632V444.336C55.7668 446.272 56.5989 448.128 58.0805 449.497C59.5621 450.867 61.5721 451.638 63.6693 451.642H343.65C345.748 451.638 347.76 450.868 349.244 449.498C350.728 448.129 351.563 446.273 351.567 444.336V81.1632C351.563 79.2267 350.728 77.3706 349.244 76.0013C347.76 74.632 345.748 73.8612 343.65 73.8577H63.6693Z" fill="#F0F0F0"/>
<path d="M657.3 451.976H377.305C375.11 451.973 373.007 451.167 371.455 449.735C369.903 448.303 369.029 446.362 369.025 444.336V81.1632C369.048 79.1496 369.93 77.2255 371.48 75.8079C373.03 74.3904 375.123 73.5935 377.305 73.5901H657.3C659.478 73.5971 661.566 74.3959 663.11 75.8135C664.655 77.2311 665.531 79.1532 665.55 81.1632V444.336C665.55 446.358 664.682 448.297 663.136 449.729C661.589 451.161 659.491 451.969 657.3 451.976ZM377.305 73.8577C375.206 73.8612 373.195 74.632 371.711 76.0013C370.227 77.3706 369.392 79.2267 369.388 81.1632V444.336C369.392 446.273 370.227 448.129 371.711 449.498C373.195 450.868 375.206 451.638 377.305 451.642H657.3C659.398 451.638 661.41 450.868 662.894 449.498C664.378 448.129 665.213 446.273 665.217 444.336V81.1632C665.213 79.2267 664.378 77.3706 662.894 76.0013C661.41 74.632 659.398 73.8612 657.3 73.8577H377.305Z" fill="#F0F0F0"/>
<path d="M631.997 431.331H592.122V511.651H631.997V431.331Z" fill="#E6E6E6"/>
<path d="M624.428 511.651H631.997V491.769H616.482L624.428 511.651Z" fill="#F5F5F5"/>
<path d="M404.463 431.331H364.588V511.651H404.463V431.331Z" fill="#EBEBEB"/>
<path d="M631.997 431.331H397.851V499.449H631.997V431.331Z" fill="#F5F5F5"/>
<path d="M405.638 437.834V474.589H475.049V437.834H405.638Z" fill="#E6E6E6"/>
<path d="M447.209 443.4H433.55C430.598 443.399 427.677 442.843 424.964 441.767C422.252 440.69 419.806 439.115 417.774 437.138H462.985C460.954 439.115 458.508 440.69 455.796 441.767C453.083 442.843 450.162 443.399 447.209 443.4Z" fill="#F0F0F0"/>
<path d="M480.211 437.834V474.589H549.622V437.834H480.211Z" fill="#E6E6E6"/>
<path d="M522.493 443.4H508.761C505.811 443.397 502.893 442.841 500.183 441.764C497.474 440.688 495.03 439.114 493 437.138H538.269C536.238 439.115 533.791 440.69 531.079 441.767C528.367 442.843 525.446 443.399 522.493 443.4Z" fill="#F0F0F0"/>
<path d="M554.799 437.847V474.602H624.21V437.847H554.799Z" fill="#E6E6E6"/>
<path d="M597.081 443.4H583.349C580.397 443.399 577.475 442.843 574.763 441.767C572.051 440.69 569.605 439.115 567.573 437.138H612.842C610.813 439.114 608.369 440.688 605.659 441.764C602.949 442.841 600.031 443.397 597.081 443.4Z" fill="#F0F0F0"/>
<path d="M405.42 511.651H397.851V491.769H413.366L405.42 511.651Z" fill="#F5F5F5"/>
<path d="M447.194 98.9988H91.1611V276.23H447.194V98.9988Z" fill="#E6E6E6"/>
<path d="M454.546 98.9988H94.5977V276.23H454.546V98.9988Z" fill="#EBEBEB"/>
<path d="M447.194 276.23H91.1611V288.861H447.194V276.23Z" fill="#E6E6E6"/>
<path d="M466.813 276.23H106.865V288.861H466.813V276.23Z" fill="#E6E6E6"/>
<path d="M444.236 266.717V108.512L104.907 108.512V266.717H444.236Z" fill="#FAFAFA"/>
<path d="M124.628 266.717L185.151 108.512H213.716L153.193 266.717H124.628Z" fill="white"/>
<path d="M109.678 213.09C109.47 213.09 109.271 213.014 109.124 212.878C108.977 212.743 108.895 212.559 108.895 212.367V114.693C108.894 114.501 108.977 114.315 109.123 114.178C109.269 114.04 109.469 113.961 109.678 113.958C109.889 113.958 110.092 114.035 110.241 114.173C110.391 114.311 110.475 114.498 110.475 114.693V212.367C110.471 212.56 110.386 212.744 110.236 212.879C110.087 213.014 109.887 213.09 109.678 213.09Z" fill="#E6E6E6"/>
<path d="M159.341 266.717L219.849 108.512H230.985L170.477 266.717H159.341Z" fill="white"/>
<path d="M444.236 266.717V108.512H442.931V266.717H444.236Z" fill="#E6E6E6"/>
<path d="M456.982 120.688H100.964L100.007 112.205H456.04L456.982 120.688Z" fill="#EBEBEB"/>
<path d="M456.982 126.883H100.964L100.007 118.413H456.04L456.982 126.883Z" fill="#EBEBEB"/>
<path d="M456.982 134.335H100.964L100.007 125.852H456.04L456.982 134.335Z" fill="#EBEBEB"/>
<path d="M456.982 142.617H100.964L100.007 134.135H456.04L456.982 142.617Z" fill="#EBEBEB"/>
<path d="M456.982 152.532H100.964L100.007 144.062H456.04L456.982 152.532Z" fill="#E6E6E6"/>
<path d="M456.982 163.704H100.964L100.007 155.235H456.04L456.982 163.704Z" fill="#E6E6E6"/>
<path d="M545.911 173.94H496.248V226.738H545.911V173.94Z" fill="#EBEBEB"/>
<path d="M555.959 173.94H502.135V226.738H555.959V173.94Z" fill="#F5F5F5"/>
<path d="M551.449 222.576V178.101H506.644V222.576H551.449Z" fill="white"/>
<path d="M540.589 208.153V192.538C540.589 190.521 538.817 188.885 536.63 188.885H521.463C519.277 188.885 517.505 190.521 517.505 192.538V208.153C517.505 210.17 519.277 211.805 521.463 211.805H536.63C538.817 211.805 540.589 210.17 540.589 208.153Z" fill="#FAFAFA"/>
<path d="M620.861 150.726H571.198V203.523H620.861V150.726Z" fill="#EBEBEB"/>
<path d="M630.91 150.726H577.086V203.523H630.91V150.726Z" fill="#F5F5F5"/>
<path d="M626.386 199.362V154.887H581.581V199.362H626.386Z" fill="white"/>
<path d="M615.525 184.925V169.324C615.525 167.307 613.753 165.671 611.567 165.671H596.4C594.214 165.671 592.441 167.307 592.441 169.324V184.925C592.441 186.942 594.214 188.578 596.4 188.578H611.567C613.753 188.578 615.525 186.942 615.525 184.925Z" fill="#FAFAFA"/>
<path d="M377.478 355.467H296.916V511.651H377.478V355.467Z" fill="#E6E6E6"/>
<path d="M369.387 511.651H377.478V490.377H360.876L369.387 511.651Z" fill="#E6E6E6"/>
<path d="M179.307 355.467H98.7451V511.651H179.307V355.467Z" fill="#E6E6E6"/>
<path d="M377.479 355.467H172.231V498.606H377.479V355.467Z" fill="#F5F5F5"/>
<path d="M369.489 361.809H176.813V401.066H369.489V361.809Z" fill="#E6E6E6"/>
<path d="M283.953 374.011H265.756C257.853 374.011 250.299 369.168 244.861 360.631H304.862C299.425 369.168 291.87 374.011 283.953 374.011Z" fill="#F5F5F5"/>
<path d="M180.337 511.651H172.231V490.377H188.834L180.337 511.651Z" fill="#E6E6E6"/>
<path d="M369.489 407.408H176.813V446.665H369.489V407.408Z" fill="#E6E6E6"/>
<path d="M283.953 419.597H265.756C257.853 419.597 250.299 414.753 244.861 406.217H304.862C299.425 414.78 291.87 419.597 283.953 419.597Z" fill="#F5F5F5"/>
<path d="M369.489 453.007H176.813V492.264H369.489V453.007Z" fill="#E6E6E6"/>
<path d="M283.953 465.196H265.756C257.853 465.196 250.299 460.352 244.861 451.816H304.862C299.425 460.352 291.87 465.196 283.953 465.196Z" fill="#F5F5F5"/>
<path d="M554.669 416.921H557.076C557.076 412.358 557.076 400.758 557.337 374.185C557.757 326.017 558.598 323.087 558.598 323.087L552.871 345.324C549.231 369.944 553.9 394.71 554.669 416.921Z" fill="#E6E6E6"/>
<path d="M544.011 337.082C531.411 325.589 506.804 324.05 481.661 323.087C471.801 322.712 509.211 340.2 527.96 353.299C542.46 363.468 551.406 365.863 556.235 376.834C556.8 362.598 554.872 346.984 544.011 337.082Z" fill="#E6E6E6"/>
<path d="M557.859 312.089C566.399 297.116 587.888 283.014 612.002 277.675C621.456 275.575 590.063 305.318 578.13 324.505C568.864 339.411 556.568 356.912 554.669 369.489C551.783 344.562 549.318 327.061 557.859 312.089Z" fill="#E6E6E6"/>
<path d="M556.8 431.331C552.758 431.327 548.87 429.898 545.932 427.336C542.994 424.774 541.228 421.274 540.995 417.55L539.545 404.344H573.953L572.503 417.55C572.268 421.256 570.515 424.742 567.6 427.301C564.684 429.859 560.823 431.3 556.8 431.331Z" fill="#F0F0F0"/>
<path d="M576.201 409.428H537.326L536.21 394.71H577.317L576.201 409.428Z" fill="#F5F5F5"/>
<path d="M362.5 572.075C517.769 572.075 643.64 565.294 643.64 556.929C643.64 548.564 517.769 541.783 362.5 541.783C207.23 541.783 81.3594 548.564 81.3594 556.929C81.3594 565.294 207.23 572.075 362.5 572.075Z" fill="#F5F5F5"/>
<path d="M485.271 273.394H284.2C274.59 273.394 266.8 280.582 266.8 289.45V532.832C266.8 541.699 274.59 548.888 284.2 548.888H485.271C494.881 548.888 502.671 541.699 502.671 532.832V289.45C502.671 280.582 494.881 273.394 485.271 273.394Z" fill="#263238"/>
<path d="M498.814 273.394H297.743C288.133 273.394 280.343 280.582 280.343 289.45V532.832C280.343 541.699 288.133 548.888 297.743 548.888H498.814C508.424 548.888 516.214 541.699 516.214 532.832V289.45C516.214 280.582 508.424 273.394 498.814 273.394Z" fill="#7E57C2"/>
<path d="M321.552 548.901H301.977C301.377 548.901 300.89 549.35 300.89 549.905V552.808C300.89 553.362 301.377 553.812 301.977 553.812H321.552C322.153 553.812 322.64 553.362 322.64 552.808V549.905C322.64 549.35 322.153 548.901 321.552 548.901Z" fill="#263238"/>
<path d="M494.566 548.901H474.991C474.39 548.901 473.903 549.35 473.903 549.905V552.808C473.903 553.362 474.39 553.812 474.991 553.812H494.566C495.166 553.812 495.653 553.362 495.653 552.808V549.905C495.653 549.35 495.166 548.901 494.566 548.901Z" fill="#263238"/>
<path opacity="0.2" d="M498.814 273.394H297.743C288.133 273.394 280.343 280.582 280.343 289.45V532.832C280.343 541.699 288.133 548.888 297.743 548.888H498.814C508.424 548.888 516.214 541.699 516.214 532.832V289.45C516.214 280.582 508.424 273.394 498.814 273.394Z" fill="black"/>
<g style="mix-blend-mode:color-dodge" opacity="0.4">
<path d="M475.121 517.124H321.421C319.661 517.12 317.974 516.473 316.73 515.325C315.485 514.176 314.784 512.62 314.78 510.996V311.313C314.78 309.686 315.479 308.126 316.725 306.975C317.97 305.823 319.659 305.175 321.421 305.171H475.121C476.884 305.175 478.573 305.823 479.818 306.975C481.063 308.126 481.762 309.686 481.762 311.313V510.996C481.758 512.62 481.058 514.176 479.813 515.325C478.568 516.473 476.881 517.12 475.121 517.124ZM321.421 305.84C319.851 305.844 318.346 306.422 317.237 307.448C316.128 308.474 315.505 309.863 315.505 311.313V510.996C315.505 511.713 315.658 512.422 315.956 513.085C316.253 513.747 316.689 514.349 317.238 514.856C317.787 515.363 318.44 515.765 319.157 516.039C319.875 516.314 320.644 516.455 321.421 516.455H475.121C476.69 516.455 478.195 515.88 479.305 514.856C480.414 513.832 481.037 512.443 481.037 510.996V311.313C481.037 309.863 480.414 308.474 479.305 307.448C478.196 306.422 476.692 305.844 475.121 305.84H321.421Z" fill="#E6E6E6"/>
</g>
<path d="M478.515 510.996V311.299C478.515 309.577 477.002 308.182 475.136 308.182H321.422C319.556 308.182 318.043 309.577 318.043 311.299V510.996C318.043 512.717 319.556 514.113 321.422 514.113H475.136C477.002 514.113 478.515 512.717 478.515 510.996Z" fill="#7E57C2"/>
<path opacity="0.1" d="M478.515 510.996V311.299C478.515 309.577 477.002 308.182 475.136 308.182H321.422C319.556 308.182 318.043 309.577 318.043 311.299V510.996C318.043 512.717 319.556 514.113 321.422 514.113H475.136C477.002 514.113 478.515 512.717 478.515 510.996Z" fill="white"/>
<path d="M521.275 330.192H519.825V341.484H521.275V330.192Z" fill="#7E57C2"/>
<path d="M521.275 289.449H519.825V318.297H521.275V289.449Z" fill="#7E57C2"/>
<path d="M398.271 347.291C404.942 347.291 410.349 342.301 410.349 336.146C410.349 329.99 404.942 325 398.271 325C391.6 325 386.192 329.99 386.192 336.146C386.192 342.301 391.6 347.291 398.271 347.291Z" fill="#7E57C2"/>
<path opacity="0.6" d="M398.199 347.264C404.869 347.264 410.277 342.274 410.277 336.119C410.277 329.963 404.869 324.973 398.199 324.973C391.528 324.973 386.12 329.963 386.12 336.119C386.12 342.274 391.528 347.264 398.199 347.264Z" fill="white"/>
<path d="M398.271 344.95C396.384 344.95 394.54 344.434 392.971 343.466C391.402 342.499 390.179 341.124 389.457 339.515C388.735 337.906 388.546 336.136 388.914 334.428C389.282 332.72 390.191 331.152 391.525 329.92C392.859 328.689 394.559 327.851 396.41 327.511C398.261 327.171 400.179 327.346 401.923 328.012C403.666 328.678 405.156 329.807 406.205 331.255C407.253 332.702 407.812 334.405 407.812 336.146C407.809 338.48 406.802 340.717 405.014 342.367C403.225 344.018 400.801 344.946 398.271 344.95ZM398.271 328.011C396.528 328.011 394.823 328.488 393.374 329.382C391.924 330.276 390.794 331.546 390.127 333.033C389.459 334.519 389.285 336.155 389.625 337.733C389.965 339.311 390.805 340.76 392.038 341.898C393.271 343.036 394.841 343.811 396.552 344.125C398.262 344.438 400.034 344.277 401.645 343.662C403.256 343.046 404.633 342.003 405.602 340.665C406.57 339.328 407.087 337.755 407.087 336.146C407.084 333.989 406.154 331.922 404.501 330.397C402.849 328.873 400.608 328.014 398.271 328.011Z" fill="#7E57C2"/>
<path d="M317.84 334.406H312.46C311.275 334.406 310.314 335.293 310.314 336.387V363.548C310.314 364.642 311.275 365.528 312.46 365.528H317.84C319.025 365.528 319.986 364.642 319.986 363.548V336.387C319.986 335.293 319.025 334.406 317.84 334.406Z" fill="#7E57C2"/>
<path opacity="0.6" d="M317.84 334.406H312.46C311.275 334.406 310.314 335.293 310.314 336.387V363.548C310.314 364.642 311.275 365.528 312.46 365.528H317.84C319.025 365.528 319.986 364.642 319.986 363.548V336.387C319.986 335.293 319.025 334.406 317.84 334.406Z" fill="white"/>
<path d="M317.84 456.766H312.46C311.275 456.766 310.314 457.653 310.314 458.747V485.908C310.314 487.002 311.275 487.888 312.46 487.888H317.84C319.025 487.888 319.986 487.002 319.986 485.908V458.747C319.986 457.653 319.025 456.766 317.84 456.766Z" fill="#7E57C2"/>
<path opacity="0.6" d="M317.84 456.766H312.46C311.275 456.766 310.314 457.653 310.314 458.747V485.908C310.314 487.002 311.275 487.888 312.46 487.888H317.84C319.025 487.888 319.986 487.002 319.986 485.908V458.747C319.986 457.653 319.025 456.766 317.84 456.766Z" fill="white"/>
<path d="M276.95 217.773C280.444 225.252 284.055 232.825 287.709 240.278C291.363 247.731 295.104 255.17 299.106 262.275C300.135 264.014 301.121 265.821 302.194 267.466L302.977 268.724L303.383 269.353C303.343 269.302 303.294 269.257 303.238 269.219C303.064 269.125 303.238 269.313 303.586 269.54C304.917 270.201 306.358 270.654 307.849 270.878C309.768 271.208 311.704 271.44 313.649 271.574C317.753 271.828 322.088 271.828 326.438 271.708L333.021 271.454L339.575 271.052L341.272 278.331C332.317 281.091 323.023 282.808 313.606 283.442C311.065 283.593 308.516 283.57 305.979 283.375C302.985 283.188 300.046 282.546 297.279 281.475C295.363 280.702 293.64 279.573 292.218 278.157C291.793 277.737 291.4 277.29 291.044 276.819L290.536 276.123L289.55 274.785C288.173 272.939 287.013 271.092 285.766 269.232C281.068 261.807 276.863 254.287 272.919 246.701C268.975 239.114 265.306 231.461 261.855 223.607L276.95 217.773Z" fill="#7F3E3B"/>
<path d="M257.693 216.756C254.402 225.64 273.745 251.771 273.745 251.771L292.276 242.298C289.129 234.147 285.414 226.191 281.154 218.482C274.615 207.176 261.304 207.002 257.693 216.756Z" fill="#7E57C2"/>
<path opacity="0.5" d="M257.693 216.756C254.402 225.64 273.745 251.771 273.745 251.771L292.276 242.298C289.129 234.147 285.414 226.191 281.154 218.482C274.615 207.176 261.304 207.002 257.693 216.756Z" fill="white"/>
<path d="M257.418 217.867C261.565 216.034 266.35 217.572 271.367 224.904C276.384 232.237 280.676 244.479 281.154 247.972L273.745 251.758C273.745 251.758 255.881 227.621 257.418 217.867Z" fill="#7E57C2"/>
<path opacity="0.4" d="M257.418 217.867C261.565 216.034 266.35 217.572 271.367 224.904C276.384 232.237 280.676 244.479 281.154 247.972L273.745 251.758C273.745 251.758 255.881 227.621 257.418 217.867Z" fill="white"/>
<path d="M270.207 209.959C270.207 209.959 284.011 239.917 274.05 295.698H216.572C215.861 287.55 219.921 247.824 209.96 209.451C216.28 208.315 222.673 207.564 229.1 207.203C237.238 206.774 245.395 206.774 253.532 207.203C259.159 207.728 264.733 208.649 270.207 209.959Z" fill="#7E57C2"/>
<path opacity="0.5" d="M270.207 209.959C270.207 209.959 284.011 239.917 274.05 295.698H216.572C215.861 287.55 219.921 247.824 209.96 209.451C216.28 208.315 222.673 207.564 229.1 207.203C237.238 206.774 245.395 206.774 253.532 207.203C259.159 207.728 264.733 208.649 270.207 209.959Z" fill="white"/>
<path d="M222.807 218.923C223.996 225.239 222.415 240.331 216.543 257.806C216.083 242.834 214.196 227.93 210.902 213.264V213.183C214.672 212.836 221.661 212.996 222.807 218.923Z" fill="#7E57C2"/>
<path opacity="0.4" d="M222.807 218.923C223.996 225.239 222.415 240.331 216.543 257.806C216.083 242.834 214.196 227.93 210.902 213.264V213.183C214.672 212.836 221.661 212.996 222.807 218.923Z" fill="white"/>
<path d="M196.199 533.367L204.725 540.405L220.951 524.817L212.425 517.779L196.199 533.367Z" fill="#7F3E3B"/>
<path d="M207.074 537.582L196.721 531.186C196.552 531.062 196.343 530.995 196.127 530.995C195.911 530.995 195.702 531.062 195.532 531.186L187.615 538.558C187.461 538.72 187.347 538.912 187.281 539.119C187.216 539.326 187.201 539.544 187.237 539.757C187.273 539.97 187.359 540.174 187.49 540.353C187.62 540.531 187.792 540.682 187.992 540.793C194.604 545.489 199.375 549.035 203.145 552.942C207.495 557.504 209.844 558.16 219.994 558.16C224.692 558.16 227.345 554.507 225.431 553.945C208.524 549.008 213.048 546.854 208.93 539.615C208.513 538.801 207.873 538.1 207.074 537.582Z" fill="#263238"/>
<path d="M220.937 524.817L212.585 532.859L204.059 525.807L212.411 517.779L220.937 524.817Z" fill="#5E2B2B"/>
<path d="M226.794 525.045H237.539L236.814 536.886H226.069L226.794 525.045Z" fill="#5E2B2B"/>
<path d="M274.049 295.698C274.049 295.698 285.374 368.03 289.231 407.394C292.334 438.985 218.311 533.166 218.311 533.166L204 520.736C204 520.736 258.056 436.295 253.895 401.132C249.878 367.08 236.204 295.658 236.204 295.658L274.049 295.698Z" fill="#7E57C2"/>
<path opacity="0.5" d="M274.049 295.698C274.049 295.698 285.374 368.03 289.231 407.394C292.334 438.985 218.311 533.166 218.311 533.166L204 520.736C204 520.736 258.056 436.295 253.895 401.132C249.878 367.08 236.204 295.658 236.204 295.658L274.049 295.698Z" fill="black"/>
<path d="M225.388 548.005H236.147L237.539 525.045H226.794L225.388 548.005Z" fill="#7F3E3B"/>
<path d="M236.713 546.867H224.634C224.433 546.86 224.236 546.926 224.087 547.051C223.938 547.177 223.848 547.351 223.837 547.536L223.242 556.354C223.24 556.584 223.288 556.812 223.381 557.026C223.475 557.239 223.613 557.433 223.788 557.597C223.963 557.761 224.172 557.892 224.401 557.982C224.631 558.071 224.878 558.118 225.127 558.12C229.332 558.053 231.348 557.826 236.727 557.826C239.99 557.826 253.881 558.147 258.405 558.147C262.929 558.147 262.755 554.026 260.87 553.651C252.3 551.979 241.672 549.637 238.627 547.47C238.082 547.073 237.407 546.86 236.713 546.867Z" fill="#263238"/>
<path d="M337.313 271.507L347.188 267.894L349.595 277.26C349.595 277.26 338.328 280.364 336.545 277.367L337.313 271.507Z" fill="#7F3E3B"/>
<path d="M355.554 269.781L358.454 274.905L349.595 277.234L347.188 267.894L355.554 269.781Z" fill="#7F3E3B"/>
<path d="M255.91 207.39L253.561 207.163C245.424 206.734 237.266 206.734 229.129 207.163L227.679 207.243L227.809 207.604C227.925 207.885 230.622 214.508 246.094 214.508C252.836 214.508 256.36 213.478 257.172 211.244C257.337 210.555 257.309 209.839 257.088 209.164C256.867 208.49 256.461 207.879 255.91 207.39Z" fill="#E6E6E6"/>
<path d="M230.55 181.807C232.362 189.059 234.407 202.359 229.1 207.229C229.1 207.229 231.391 213.237 246.007 213.237C262.073 213.237 253.532 207.229 253.532 207.229C244.687 205.303 244.702 199.295 246.007 193.662L230.55 181.807Z" fill="#7F3E3B"/>
<path d="M236.887 186.638L246.036 193.622C245.707 194.941 245.503 196.284 245.427 197.636C242.063 197.195 237.336 193.796 236.858 190.558C236.602 189.261 236.612 187.931 236.887 186.638Z" fill="#5E2B2B"/>
<path d="M253.518 160.226C258.404 163.142 259.1 177.165 251.952 179.172C244.803 181.179 244.267 154.713 253.518 160.226Z" fill="#263238"/>
<path d="M227.157 174.207C230.434 183.573 231.826 189.233 238.438 193.073C240.571 194.338 243.038 195.041 245.573 195.106C248.107 195.17 250.613 194.594 252.818 193.439C255.024 192.285 256.845 190.596 258.085 188.555C259.325 186.514 259.937 184.199 259.854 181.861C259.724 172.856 254.388 158.994 243.15 157.255C240.728 156.824 238.226 156.987 235.894 157.729C233.562 158.47 231.482 159.764 229.863 161.481C228.243 163.198 227.141 165.277 226.666 167.51C226.191 169.744 226.36 172.053 227.157 174.207Z" fill="#7F3E3B"/>
<path d="M215.441 165.39C218.95 171.264 227.766 184.644 232 183.306C236.234 181.968 236.249 171.264 230.811 164.48C230.811 164.48 273.891 168.494 274.761 145.909C275.645 122.802 254.896 145.16 236.64 151.622C216.775 158.714 207.191 151.569 215.441 165.39Z" fill="#263238"/>
<path d="M217.283 157.202C217.201 157.186 217.127 157.145 217.074 157.086C217.021 157.026 216.992 156.951 216.992 156.874C216.992 156.797 217.021 156.722 217.074 156.662C217.127 156.603 217.201 156.562 217.283 156.546C217.935 156.412 218.646 156.292 219.414 156.158C225.191 155.288 230.824 153.741 236.176 151.555C241.614 149.308 247.312 145.454 252.358 142.056C255.564 139.797 258.904 137.707 262.363 135.794C262.448 135.754 262.547 135.746 262.638 135.771C262.73 135.796 262.807 135.852 262.856 135.928C262.879 135.966 262.893 136.009 262.899 136.053C262.904 136.096 262.899 136.141 262.886 136.183C262.873 136.225 262.85 136.265 262.82 136.299C262.79 136.333 262.753 136.362 262.711 136.383C259.276 138.282 255.96 140.36 252.779 142.604C247.718 146.016 241.976 149.883 236.466 152.171C231.068 154.377 225.386 155.938 219.559 156.814C218.791 156.948 218.109 157.068 217.428 157.202H217.283Z" fill="#263238"/>
<path d="M225.358 185.647C227.303 187.391 229.897 188.382 232.608 188.417C236.204 188.417 236.958 185.286 235.03 182.664C233.319 180.309 229.404 177.472 226.243 178.743C223.082 180.014 222.98 183.493 225.358 185.647Z" fill="#7F3E3B"/>
<path opacity="0.2" d="M253.909 401.172C251.836 383.631 247.196 356.149 243.208 333.644C245.296 329.87 251.154 322.23 251.154 322.23C256.403 338.969 267.815 402.069 251.531 487.286C234.566 512.521 218.326 533.206 218.326 533.206L216.05 500.666C231.782 473.451 256.795 425.484 253.909 401.172Z" fill="black"/>
<path d="M243.672 173.686C243.89 174.462 244.513 175.024 245.122 174.89C245.731 174.756 245.949 174.047 245.731 173.271C245.514 172.495 244.89 171.933 244.281 172.08C243.672 172.227 243.455 172.91 243.672 173.686Z" fill="#263238"/>
<path d="M253.243 171.746C253.46 172.522 254.084 173.084 254.693 172.95C255.302 172.816 255.519 172.12 255.302 171.344C255.084 170.568 254.475 170.006 253.852 170.14C253.228 170.274 253.025 170.97 253.243 171.746Z" fill="#263238"/>
<path d="M250.313 172.749C251.984 174.92 253.959 176.877 256.186 178.57C255.702 179.066 255.105 179.459 254.439 179.72C253.773 179.981 253.053 180.105 252.329 180.082L250.313 172.749Z" fill="#630F0F"/>
<path d="M248.675 182.905C246.909 182.921 245.196 182.351 243.847 181.299C243.823 181.278 243.804 181.253 243.791 181.225C243.777 181.197 243.77 181.167 243.77 181.136C243.769 181.106 243.775 181.076 243.787 181.047C243.799 181.019 243.817 180.993 243.84 180.971C243.862 180.949 243.89 180.932 243.92 180.919C243.95 180.907 243.983 180.901 244.016 180.9C244.049 180.899 244.081 180.905 244.112 180.916C244.143 180.927 244.171 180.943 244.195 180.965C245.044 181.601 246.038 182.052 247.103 182.284C248.167 182.516 249.275 182.522 250.343 182.303C250.375 182.295 250.409 182.294 250.442 182.299C250.474 182.304 250.506 182.315 250.534 182.331C250.562 182.347 250.587 182.369 250.606 182.393C250.626 182.418 250.64 182.447 250.647 182.476C250.655 182.506 250.656 182.537 250.651 182.568C250.645 182.598 250.634 182.627 250.616 182.653C250.599 182.679 250.576 182.702 250.549 182.72C250.522 182.738 250.491 182.75 250.459 182.757C249.872 182.868 249.274 182.917 248.675 182.905Z" fill="#263238"/>
<path d="M239.873 171.451C239.806 171.464 239.737 171.464 239.67 171.451C239.608 171.428 239.552 171.393 239.505 171.349C239.458 171.305 239.421 171.253 239.396 171.195C239.372 171.138 239.36 171.076 239.363 171.014C239.365 170.953 239.381 170.892 239.409 170.836C239.719 170.158 240.203 169.56 240.819 169.094C241.436 168.627 242.166 168.307 242.947 168.16C243.081 168.148 243.214 168.182 243.322 168.256C243.429 168.331 243.503 168.44 243.527 168.561C243.538 168.623 243.534 168.686 243.518 168.746C243.501 168.807 243.472 168.863 243.432 168.913C243.391 168.963 243.34 169.005 243.282 169.036C243.224 169.068 243.159 169.088 243.092 169.096C242.479 169.224 241.908 169.487 241.428 169.862C240.949 170.237 240.574 170.713 240.337 171.251C240.287 171.32 240.218 171.376 240.136 171.411C240.054 171.446 239.963 171.46 239.873 171.451Z" fill="#263238"/>
<path d="M256.476 167.906C256.401 167.906 256.326 167.891 256.259 167.861C256.191 167.83 256.131 167.786 256.085 167.732C255.677 167.263 255.16 166.886 254.573 166.626C253.986 166.367 253.343 166.233 252.692 166.233C252.558 166.241 252.426 166.2 252.323 166.121C252.221 166.041 252.155 165.928 252.141 165.805C252.132 165.681 252.176 165.56 252.262 165.465C252.349 165.37 252.471 165.31 252.605 165.296C253.42 165.281 254.228 165.438 254.967 165.756C255.706 166.074 256.356 166.544 256.868 167.129C256.952 167.228 256.992 167.353 256.979 167.478C256.965 167.603 256.899 167.718 256.795 167.798C256.705 167.867 256.593 167.905 256.476 167.906Z" fill="#263238"/>
<path d="M217.413 263.158C214.525 262.26 211.753 261.071 209.148 259.612C208.581 259.279 208.056 258.888 207.582 258.448C208.249 255.571 209.119 252.681 210.062 249.778C211.004 246.874 212.164 243.904 213.368 240.974C214.571 238.043 215.847 235.127 217.181 232.237C217.848 230.792 218.53 229.346 219.226 227.915L221.314 223.754L206.814 216.903C205.857 218.576 205.074 220.047 204.291 221.64C203.508 223.232 202.841 224.771 202.058 226.349C200.627 229.525 199.322 232.741 198.143 235.996C195.685 242.643 193.96 249.501 192.995 256.468V256.829V257.525C192.959 258.006 192.959 258.489 192.995 258.97C193.054 259.941 193.239 260.903 193.546 261.833C194.118 263.474 195.045 264.99 196.272 266.289C198.077 268.102 200.243 269.579 202.652 270.637C206.363 272.252 210.287 273.413 214.325 274.089C221.677 275.378 229.16 275.917 236.64 275.695L237.307 268.269C230.574 266.92 223.932 265.214 217.413 263.158Z" fill="#7F3E3B"/>
<path d="M240.526 548.58C239.549 548.559 238.576 548.443 237.626 548.232C237.582 548.218 237.543 548.195 237.51 548.165C237.477 548.135 237.452 548.099 237.437 548.058C237.431 548.015 237.436 547.972 237.454 547.932C237.472 547.892 237.501 547.857 237.539 547.831C237.887 547.603 240.932 545.69 242.237 546.172C242.385 546.224 242.516 546.311 242.618 546.423C242.719 546.535 242.788 546.67 242.817 546.814C242.88 547.029 242.885 547.256 242.829 547.474C242.773 547.691 242.659 547.892 242.498 548.058C241.931 548.448 241.23 548.634 240.526 548.58ZM238.322 547.911C240.25 548.259 241.686 548.205 242.193 547.751C242.298 547.635 242.368 547.497 242.399 547.35C242.429 547.202 242.418 547.05 242.367 546.908C242.354 546.837 242.322 546.771 242.274 546.715C242.226 546.659 242.163 546.614 242.092 546.586C241.323 546.305 239.409 547.242 238.322 547.911Z" fill="#7E57C2"/>
<path d="M237.713 548.232C237.675 548.244 237.634 548.244 237.597 548.232C237.561 548.216 237.53 548.192 237.507 548.161C237.484 548.131 237.47 548.095 237.466 548.058C237.466 547.938 237.22 545.088 238.307 544.125C238.443 544.001 238.608 543.908 238.789 543.852C238.97 543.796 239.162 543.78 239.351 543.803C239.564 543.811 239.767 543.883 239.93 544.009C240.093 544.135 240.205 544.308 240.25 544.499C240.497 545.583 238.902 547.644 237.829 548.232H237.713ZM239.163 544.218C239.063 544.217 238.965 544.234 238.872 544.268C238.78 544.303 238.697 544.354 238.626 544.419C238.029 545.379 237.78 546.49 237.916 547.59C238.8 546.894 239.946 545.315 239.772 544.566C239.772 544.419 239.656 544.258 239.279 544.218H239.163Z" fill="#7E57C2"/>
<path d="M214.049 542.947C212.132 542.676 210.301 542.023 208.684 541.034C208.637 541.013 208.599 540.978 208.577 540.933C208.556 540.889 208.553 540.839 208.568 540.793C208.582 540.747 208.61 540.707 208.649 540.676C208.687 540.645 208.735 540.625 208.786 540.619C209.366 540.619 214.455 540.271 215.412 541.341C215.498 541.429 215.557 541.535 215.585 541.65C215.613 541.765 215.609 541.884 215.572 541.997C215.527 542.181 215.435 542.352 215.304 542.497C215.173 542.641 215.006 542.754 214.818 542.827C214.571 542.909 214.311 542.95 214.049 542.947ZM209.627 541.02C211.961 542.211 213.803 542.733 214.629 542.358C214.749 542.314 214.855 542.243 214.938 542.152C215.021 542.061 215.08 541.953 215.108 541.837C215.133 541.796 215.147 541.75 215.147 541.703C215.147 541.656 215.133 541.61 215.108 541.569C214.513 541.034 211.7 540.94 209.627 541.02Z" fill="#7E57C2"/>
<path d="M208.8 541.074C208.759 541.073 208.719 541.063 208.683 541.044C208.648 541.025 208.618 540.999 208.597 540.967C208.579 540.934 208.569 540.897 208.569 540.86C208.569 540.823 208.579 540.786 208.597 540.753C208.684 540.592 210.612 536.966 213.092 538.077C213.773 538.385 213.831 538.746 213.773 539C213.527 540.084 210.308 541.061 208.829 541.101L208.8 541.074ZM212.149 538.304C210.815 538.304 209.67 539.87 209.249 540.592C210.801 540.418 213.179 539.522 213.324 538.88C213.324 538.746 213.208 538.599 212.889 538.451C212.659 538.348 212.405 538.297 212.149 538.304Z" fill="#7E57C2"/>
<path d="M235.639 268.162L244.47 265.927L245.673 276.217C245.673 276.217 236.973 278.625 234.812 274.41L235.639 268.162Z" fill="#7F3E3B"/>
<path d="M235.466 268.376C237.315 266.526 238.398 264.133 238.525 261.619L240.787 262.756C240.787 262.756 241.237 267.373 240.352 268.697C239.468 270.022 235.466 268.376 235.466 268.376Z" fill="#7F3E3B"/>
<path d="M248.602 266.944L248.066 276.217H245.673L244.455 265.927L248.602 266.944Z" fill="#7F3E3B"/>
<path d="M203.145 520.027L219.196 533.969L224.373 528.845L206.001 513.404L203.145 520.027Z" fill="#7E57C2"/>
<path opacity="0.1" d="M203.145 520.027L219.196 533.969L224.373 528.845L206.001 513.404L203.145 520.027Z" fill="black"/>
<path d="M253.619 295.698C253.619 295.698 254.634 371.496 252.894 399.901C250.995 430.997 241.425 534.036 241.425 534.036H221.734C221.734 534.036 222.328 433.512 221.139 402.725C219.849 369.275 216.514 295.685 216.514 295.685L253.619 295.698Z" fill="#7E57C2"/>
<path opacity="0.5" d="M253.619 295.698C253.619 295.698 254.634 371.496 252.894 399.901C250.995 430.997 241.425 534.036 241.425 534.036H221.734C221.734 534.036 222.328 433.512 221.139 402.725C219.849 369.275 216.514 295.685 216.514 295.685L253.619 295.698Z" fill="black"/>
<path d="M220.95 534.036H242.222L243.396 527.132L219.921 528.216L220.95 534.036Z" fill="#7E57C2"/>
<path opacity="0.1" d="M220.95 534.036H242.222L243.396 527.132L219.921 528.216L220.95 534.036Z" fill="black"/>
<path d="M209.96 209.451C199.81 210.789 189.413 245.189 189.413 245.189L213.875 253.779C213.875 253.779 220.023 239.061 224.228 227.514C228.636 215.485 220.82 207.979 209.96 209.451Z" fill="#7E57C2"/>
<path opacity="0.5" d="M209.96 209.451C199.81 210.789 189.413 245.189 189.413 245.189L213.875 253.779C213.875 253.779 220.023 239.061 224.228 227.514C228.636 215.485 220.82 207.979 209.96 209.451Z" fill="white"/>
</svg>
